<mxfile host="app.diagrams.net" modified="2023-03-31T14:41:34.489Z" agent="Mozilla/5.0 (Windows NT 10.0; Win64; x64) AppleWebKit/537.36 (KHTML, like Gecko) Chrome/111.0.0.0 Safari/537.36" version="21.1.2" etag="kod1WaI6cPIow3pNrzSR" type="github">
  <diagram name="Page-1" id="uZ-2S-E-gHEQq7g7UgDD">
    <mxGraphModel>
      <root>
        <mxCell id="0" />
        <mxCell id="1" parent="0" />
      </root>
    </mxGraphModel>
  </diagram>
</mxfile>
